<svg xmlns="http://www.w3.org/2000/svg" width="21.211" height="26.5" viewBox="0 0 21.211 26.5"><defs><style>.a{fill:#fff;}</style></defs><g transform="translate(-48.8)"><path class="a" d="M70.005,22.907,68.488,5.82a.73.73,0,0,0-.726-.667H64.64a5.236,5.236,0,0,0-10.47,0H51.049a.726.726,0,0,0-.726.667L48.805,22.907c0,.022-.005.043-.005.065A3.776,3.776,0,0,0,52.778,26.5H66.033a3.776,3.776,0,0,0,3.978-3.528A.264.264,0,0,0,70.005,22.907ZM59.405,1.463a3.776,3.776,0,0,1,3.772,3.69H55.634A3.776,3.776,0,0,1,59.405,1.463Zm6.628,23.574H52.778A2.335,2.335,0,0,1,50.263,23L51.716,6.622h2.449V8.844a.732.732,0,1,0,1.463,0V6.622h7.549V8.844a.732.732,0,1,0,1.463,0V6.622H67.09L68.548,23A2.338,2.338,0,0,1,66.033,25.037Z"/></g></svg>